<svg xmlns="http://www.w3.org/2000/svg" viewBox="0 0 58 58" preserveAspectRatio="none">
	<g fill="none" fill-rule="evenodd">
		<path d="m52 30 5.41 5.41a2 2 0 0 1 .59 1.42V50a2 2 0 0 1-2 2H2a2 2 0 0 1-2-2V36.83a2 2 0 0 1 .59-1.42L6 30z" fill="#e64c3c"></path>
		<path d="M2 52h11v4a2 2 0 0 1-2 2H4a2 2 0 0 1-2-2zM45 52h11v4a2 2 0 0 1-2 2h-7a2 2 0 0 1-2-2z" fill="#3f5c6c"></path>
		<path d="m52 30-3.09-9.27a4 4 0 0 0-3.8-2.73H12.89a4 4 0 0 0-3.8 2.73L6 30z" fill="#b0d3f0"></path>
		<path d="M36.6 43H21.4c-.28 0-.54-.1-.74-.27l-3.24-2.7a1.15 1.15 0 0 1 .73-2.03h21.7a1.15 1.15 0 0 1 .74 2.03l-3.24 2.7c-.21.18-.47.27-.74.27z" fill="#35495e"></path>
		<path d="M54 39v3a1 1 0 0 1-1 1h-7.85a1.15 1.15 0 0 1-.73-2.03l3.25-2.7c.2-.17.47-.27.74-.27H53a1 1 0 0 1 1 1zM4 39v3a1 1 0 0 0 1 1h7.85a1.15 1.15 0 0 0 .73-2.03l-3.25-2.7c-.2-.17-.46-.27-.73-.27H5a1 1 0 0 0-1 1z" fill="#f0c419"></path>
		<g fill="#c03a2b">
			<path d="M12 49H5a1 1 0 0 1 0-2h7a1 1 0 0 1 0 2zM53 49h-7a1 1 0 0 1 0-2h7a1 1 0 0 1 0 2zM38 49H20a1 1 0 0 1 0-2h18a1 1 0 0 1 0 2zM2 26h2a2 2 0 0 1 2 2v2H2a2 2 0 1 1 0-4zM56 30h-4v-2c0-1.1.9-2 2-2h2a2 2 0 1 1 0 4z"></path>
		</g>
		<path d="M21 0h-9.17a2 2 0 0 0-1.42.59L8.59 2.41A2 2 0 0 0 8 3.83v6.34a2 2 0 0 0 .59 1.42l1.82 1.82a2 2 0 0 0 1.42.59H21a2 2 0 0 0 2-2V2a2 2 0 0 0-2-2zm-5 9a1 1 0 0 1-1 1h-2a1 1 0 0 1-1-1V5a1 1 0 0 1 1-1h2a1 1 0 0 1 1 1z" fill="#e64c3c" fill-rule="nonzero"></path>
		<path d="M23 2h2.17a2 2 0 0 1 1.42.59l.82.82c.38.38.89.59 1.42.59h17.5a1 1 0 0 1 .6.2l2.67 2a1 1 0 0 1 0 1.6l-2.67 2a1 1 0 0 1-.6.2h-1.92a1 1 0 0 1-.7-.3l-1-1a1 1 0 0 0-1.42 0l-1 1a1 1 0 0 1-.7.3H37.4a1 1 0 0 1-.7-.3l-1-1a1 1 0 0 0-1.42 0l-1 1a1 1 0 0 1-.7.3h-3.76a2 2 0 0 0-1.42.59l-.82.82c-.38.38-.89.59-1.42.59H23z" fill="#95a5a5"></path>
	</g>
</svg>