<svg xmlns="http://www.w3.org/2000/svg" viewBox="0 0 512 512" preserveAspectRatio="none">
  <path d="M390.5 481.34H146.78a22.14 22.14 0 0 1-15.67-6.5l-53.68-53.76a22.14 22.14 0 0 1-6.47-15.65V53.53a4.43 4.43 0 0 1 4.43-4.43H390.5a4.43 4.43 0 0 1 4.43 4.43V476.9a4.43 4.43 0 0 1-4.43 4.43z" fill="#aee0f4"></path>
  <path d="M225.14 22.86c0-12.9-10.69-23.3-23.69-22.85-12.39.44-22.02 11-22.02 23.4v14.7h45.71z" fill="#fbc96d"></path>
  <path d="m353.2 92.8 7.1 410.7a4.42 4.42 0 0 1-4.43 4.44L322.86 512H131.5c-2.98 0-5.88-.64-8.54-1.85l-4.43-69.66a4.12 4.12 0 0 0-4.12-4.12l-72.26-7.14a20.45 20.45 0 0 1-1.85-8.53V84.2a4.44 4.44 0 0 1 4.43-4.43h295.87l8.19 8.6a4.43 4.43 0 0 1 4.43 4.44z" fill="#dff8ff"></path>
  <path d="M273.88 96.94H130.69a4.12 4.12 0 0 1-4.12-4.12V46.06c0-8.53 6.92-15.45 15.46-15.45h120.51c8.54 0 15.46 6.91 15.46 15.45v46.76a4.12 4.12 0 0 1-4.13 4.12z" fill="#ffda8f"></path>
  <path d="M359.85 79.76h-19.27v409.51A22.73 22.73 0 0 1 317.87 512h41.99a4.43 4.43 0 0 0 4.43-4.43V84.18a4.43 4.43 0 0 0-4.43-4.42z" fill="#c0ecfc"></path>
  <path d="M143.88 457.45h-20.75a10.3 10.3 0 0 1-10.3-10.3v-39.61a10.3 10.3 0 0 1 10.3-10.3h20.75a10.3 10.3 0 0 1 10.3 10.3v39.6a10.3 10.3 0 0 1-10.3 10.3zM278.64 455.7l-10.35 1.75h-7.6a10.3 10.3 0 0 1-10.3-10.3v-39.61a10.3 10.3 0 0 1 10.3-10.3h17.18a10.3 10.3 0 0 1 10.3 10.3l.77 37.86a10.3 10.3 0 0 1-10.3 10.3z" fill="#8c7f8a"></path>
  <path d="M291.73 407.54v39.61a10.3 10.3 0 0 1-10.3 10.3h-14.16c2.1 0 3.78-1.7 3.78-3.78v-56.43h10.38a10.3 10.3 0 0 1 10.3 10.3z" fill="#7a6e7a"></path>
  <path d="M250.44 284.62H155.2c-7.13 0-13.32 5.23-15 12.67l-11.1 49.14 73.72 11.69 73.71-11.69-11.1-49.14c-1.67-7.44-7.87-12.67-15-12.67z" fill="#dff8ff"></path>
  <path d="m267.2 347.92-10.2 1.61-1.78-3.1-12.32-54.08 4.16-1.62a9.75 9.75 0 0 1 9.5 7.48l11.88 45.6z" fill="#c0ecfc"></path>
  <path d="M274.79 354.16a7.73 7.73 0 0 1-7.5-5.9l-11.75-48.44a9.76 9.76 0 0 0-9.51-7.48h-87.46a9.76 9.76 0 0 0-9.5 7.48l-11.75 48.44a7.73 7.73 0 0 1-9.33 5.68c-4.15-1-5.37-3.35-4.36-7.5l10.42-50.26a25.17 25.17 0 0 1 24.52-19.29h79.39l6 2.11a25.17 25.17 0 0 1 24.52 19.3l11.15 48.14c1 4.15 1.13 6.5-3.02 7.5-.6.15-1.22.22-1.82.22z" fill="#fd8087"></path>
  <path d="M276.62 353.94a7.73 7.73 0 0 1-9.33-5.69l-.09-.33-11.66-48.1a9.75 9.75 0 0 0-9.5-7.47h-3.14l-1.76-7.73-.32-1.4a17.03 17.03 0 0 0-2.86-6.33h8.07a25.18 25.18 0 0 1 24.53 19.29l11.45 50.26c1 4.15-1.25 6.5-5.4 7.5z" fill="#fe646f"></path>
  <path d="M287.68 198.93H129.66a7.73 7.73 0 1 1 0-15.46h158.02a7.73 7.73 0 1 1 0 15.46zM287.68 250.43H129.66a7.73 7.73 0 1 1 0-15.45h158.02a7.73 7.73 0 1 1 0 15.45zM263.83 147.1H150.42a7.73 7.73 0 1 1 0-15.44h113.41a7.73 7.73 0 1 1 0 15.45z" fill="#c0ecfc"></path>
  <path d="M86.14 250.43h-.07a7.72 7.72 0 0 1-5.49-2.36l-10.83-11.23a7.73 7.73 0 1 1 11.12-10.73l5.38 5.57 13.57-13.58a7.73 7.73 0 0 1 10.93 10.93L91.6 248.17a7.73 7.73 0 0 1-5.47 2.26zM86.14 198.93h-.07a7.72 7.72 0 0 1-5.49-2.37l-10.83-11.23a7.73 7.73 0 1 1 11.12-10.73l5.38 5.57 13.57-13.58a7.73 7.73 0 0 1 10.93 10.93L91.6 196.66a7.73 7.73 0 0 1-5.47 2.27zM377.47 362.91l-13.7-2.82-22.46-14.38a116.31 116.31 0 0 1-53.63-97.97v-76.26a4.12 4.12 0 0 1 3.44-4.07l12.98-2.16a178.5 178.5 0 0 0 63.8-23.8l9.65-5.9c1.32-.81 2.98-.81 4.3 0l9.64 5.9a178.51 178.51 0 0 0 61.68 23.43c.7.13 12.86 3.98 12.86 3.98a4.12 4.12 0 0 1 3.45 4.06l-.08 73.98c0 39.56-18.38 71.33-51.66 92.74l-35.82 23.27c-1.35.87-3.1.87-4.45 0z" fill="#52d8a4"></path>
  <path d="M471.71 171.47v76.45c0 39.56-20.12 76.42-53.4 97.83L382.18 369c-1.36.88-3.1.88-4.45.01l-13.95-8.92 44.53-29.94a97.4 97.4 0 0 0 44.87-82.23v-83.04c.7.13 1.41.26 2.12.37l12.98 2.16a4.12 4.12 0 0 1 3.44 4.06z" fill="#1fc091"></path>
  <path d="M358.86 318.28a83.75 83.75 0 0 1-38.61-70.54v-49.17a4.13 4.13 0 0 1 3.2-4.01 209.7 209.7 0 0 0 54.23-21.1c1.26-.71 2.77-.71 4.03 0a209.64 209.64 0 0 0 54.23 21.1c1.87.44 3.2 2.09 3.2 4v49.36a83.4 83.4 0 0 1-38.44 70.43l-18.58 11.96c-1.36.87-3.1.87-4.45 0z" fill="#1fc091"></path>
  <path d="M373.6 278.2h-.08a7.72 7.72 0 0 1-5.49-2.36l-21.72-22.53a7.73 7.73 0 1 1 11.12-10.73l16.26 16.87 32.82-32.82a7.73 7.73 0 0 1 10.93 10.92l-38.38 38.39a7.74 7.74 0 0 1-5.47 2.26z" fill="#dff8ff"></path>
  <path d="M122.95 433.36v76.79a20.46 20.46 0 0 1-6.04-4.2l-70.6-70.68a20.57 20.57 0 0 1-4.17-6.03h65.42l6.13-1.9 5.14 1.9a4.12 4.12 0 0 1 4.12 4.12z" fill="#aee0f4"></path>
  <path d="m302.98 393.16-.15 26.43a8.3 8.3 0 0 1-8.3 8.3l-22.46 1.35h-164.5a8.29 8.29 0 0 1-8.29-8.3v-18.7l4.67-9.08z" fill="#fe646f"></path>
  <path d="m300.14 382.6.15 10.56H102.37l-.9-10.25c0-1.93-1.95-3.83-1.5-5.67a23.5 23.5 0 0 1 5.2-9.9l18.46-20.9h131.6l24.73 3.1 14.62 17.9a23.47 23.47 0 0 1 5.56 15.17z" fill="#fd8087"></path>
  <path d="m300.29 393.16 5 9.07v18.71a8.3 8.3 0 0 1-8.3 8.3h-26.78a8.3 8.3 0 0 0 8.3-8.3v-27.78z" fill="#fb4754"></path>
  <path d="M302.25 382.6v10.56H278.5V382.6c0-5.55-1.96-10.93-5.55-15.17l-17.73-21h26.79l17.73 21a23.46 23.46 0 0 1 4.93 9.8c.4 1.75-2.42 3.55-2.42 5.37z" fill="#fe646f"></path>
  <path d="M294.69 377.24h-23.76a4.12 4.12 0 0 0-4.12 4.12v3.43c0 9.64 7.8 17.44 17.44 17.44h12.7c.98-8.24-.27-16.82-2.26-24.99z" fill="#ffda8f"></path>
  <path d="M305.29 382.6v19.63h-21.04c-2.02 0-3.95-.34-5.75-.98v-18.64c0-1.82-.21-3.63-.62-5.37h26.78c.04.57.47 1.41.63 5.37z" fill="#fbc96d"></path>
  <path d="M99.98 377.24h33.81a4.12 4.12 0 0 1 4.13 4.12v3.43c0 9.63-7.81 17.44-17.45 17.44H99.28v-19.32c0-1.93.24-3.83.7-5.67z" fill="#ffda8f"></path>
</svg>