<svg xmlns="http://www.w3.org/2000/svg" viewBox="0 0 512 512" preserveAspectRatio="none">
	<path d="M497.4 381.95H11.46A11.45 11.45 0 0 1 0 370.49v-38.3h512v35.16a14.6 14.6 0 0 1-14.6 14.6z" fill="#399aea"></path>
	<path d="M497.4 381.95H363.39V180.09h84.93c4.43 0 8.67 1.77 11.78 4.92l47.13 47.72a16.55 16.55 0 0 1 4.78 11.63v123a14.6 14.6 0 0 1-14.6 14.59z" fill="#61aff6"></path>
	<path d="m507.22 232.73-47.13-47.72a16.55 16.55 0 0 0-11.78-4.92h-57.1c4.43 0 8.67 1.77 11.78 4.92l47.13 47.72a16.55 16.55 0 0 1 4.78 11.63v137.59h42.5a14.6 14.6 0 0 0 14.6-14.6v-123c0-4.34-1.72-8.52-4.78-11.62z" fill="#399aea"></path>
	<path d="M391.77 280.15v-62.72a6.83 6.83 0 0 1 6.83-6.83h41.91c1.83 0 3.58.73 4.86 2.03l36.27 36.71a6.83 6.83 0 0 1 1.97 4.8v26.01a6.83 6.83 0 0 1-6.83 6.83H398.6a6.83 6.83 0 0 1-6.83-6.83z" fill="#33d8dd"></path>
	<circle cx="434.31" cy="377.04" r="44.86" fill="#3d6687"></circle>
	<circle cx="434.31" cy="377.04" r="17.33" fill="#cccbca"></circle>
	<path d="M0 353.45h363.38V98.29a8.18 8.18 0 0 0-8.18-8.19H8.18A8.18 8.18 0 0 0 0 98.3v255.16z" fill="#ffc06c"></path>
	<path d="M355.2 90.1h-48.92v263.35h57.1V98.29a8.19 8.19 0 0 0-8.18-8.19z" fill="#eda558"></path>
	<circle cx="89.71" cy="377.04" r="44.86" fill="#3d6687"></circle>
	<circle cx="89.71" cy="377.04" r="17.33" fill="#cccbca"></circle>
	<path d="M216.23 184.2H143.3a6.15 6.15 0 0 1-6.15-6.15V90.1h85.25v87.95c0 3.4-2.76 6.15-6.16 6.15z" fill="#ff4c4c"></path>
	<g fill="#fff">
		<path d="M241.96 319.51h80.8a7.7 7.7 0 1 0 0-15.4h-80.8a7.7 7.7 0 0 0 0 15.4zM241.96 275h80.8a7.7 7.7 0 0 0 0-15.4h-80.8a7.7 7.7 0 1 0 0 15.4z"></path>
	</g>
</svg>